<?xml version="1.0" encoding="UTF-8" standalone="no"?>
<!DOCTYPE svg PUBLIC "-//W3C//DTD SVG 1.1//EN" "http://www.w3.org/Graphics/SVG/1.1/DTD/svg11.dtd">
<svg width="100%" height="100%" viewBox="0 0 500 500" version="1.1" xmlns="http://www.w3.org/2000/svg" xmlns:xlink="http://www.w3.org/1999/xlink" xml:space="preserve" xmlns:serif="http://www.serif.com/" style="fill-rule:evenodd;clip-rule:evenodd;stroke-linejoin:round;stroke-miterlimit:2;">
    <path d="M500,0L500,500L0,500L0,0L500,0ZM247.232,474.89C272.858,474.89 293.782,466.988 310.13,451.524C326.765,435.788 335.056,416.667 335.056,394.187C335.056,371.173 326.674,352.122 309.977,337.005C293.669,322.239 272.797,314.67 247.232,314.67C221.667,314.67 200.795,322.239 184.486,337.005C167.79,352.122 159.408,371.173 159.408,394.187C159.408,416.667 167.699,435.788 184.334,451.524C200.682,466.988 221.606,474.89 247.232,474.89ZM247.232,465.39C224.289,465.39 205.499,458.468 190.863,444.623C176.226,430.778 168.908,413.966 168.908,394.187C168.908,374.013 176.226,357.3 190.863,344.048C205.499,330.796 224.289,324.17 247.232,324.17C270.175,324.17 288.965,330.796 303.601,344.048C318.238,357.3 325.556,374.013 325.556,394.187C325.556,413.966 318.238,430.778 303.601,444.623C288.965,458.468 270.175,465.39 247.232,465.39ZM176.616,300.436L176.616,309.936L317.848,309.936L317.848,300.436C317.848,294.347 319.929,288.856 323.989,283.927C329.291,277.489 338.022,269 350.127,258.405C362.709,247.849 373.048,238.201 381.167,229.473C389.713,220.286 397.117,208.985 403.312,195.526C409.572,181.926 412.786,166.076 412.786,147.942C412.786,108.53 396.328,77.996 363.412,56.341C331.997,35.674 291.134,25.11 240.705,25.11C193.393,25.11 153.621,34.102 121.326,51.792C88.565,69.738 63.863,94.593 47.169,126.31L42.652,134.893L165.335,196.235L169.636,187.901C175.193,177.135 182.815,168.523 192.539,162.098C201.99,155.854 212.104,152.695 222.904,152.695C232.253,152.695 240.039,154.519 246.164,158.548C250.781,161.586 253.159,165.738 253.159,171.083C253.159,175.774 251.47,180.151 248.296,184.29C243.96,189.947 237.057,197.277 227.636,206.323C211.595,221.543 199.301,235.644 190.672,248.587C181.417,262.47 176.616,279.722 176.616,300.436ZM186.116,300.436C186.116,281.844 190.269,266.317 198.576,253.857C206.883,241.396 218.751,227.848 234.178,213.212C244.067,203.718 251.287,196.004 255.836,190.07C260.385,184.137 262.659,177.808 262.659,171.083C262.659,162.38 258.901,155.557 251.386,150.612C243.87,145.667 234.376,143.195 222.904,143.195C210.246,143.195 198.379,146.854 187.302,154.172C176.226,161.49 167.524,171.281 161.195,183.543L55.576,130.734C71.399,100.671 94.837,77.134 125.89,60.124C156.942,43.115 195.214,34.61 240.705,34.61C288.965,34.61 328.127,44.499 358.191,64.278C388.254,84.057 403.286,111.945 403.286,147.942C403.286,164.556 400.418,179.093 394.682,191.554C388.947,204.014 382.123,214.497 374.211,223.002C366.3,231.507 356.213,240.902 343.95,251.187C331.292,262.263 322.193,271.163 316.655,277.888C311.117,284.613 308.348,292.129 308.348,300.436L186.116,300.436Z" style="fill:none;"/>
    <clipPath id="_clip1">
        <path d="M500,0L500,500L0,500L0,0L500,0ZM247.232,474.89C272.858,474.89 293.782,466.988 310.13,451.524C326.765,435.788 335.056,416.667 335.056,394.187C335.056,371.173 326.674,352.122 309.977,337.005C293.669,322.239 272.797,314.67 247.232,314.67C221.667,314.67 200.795,322.239 184.486,337.005C167.79,352.122 159.408,371.173 159.408,394.187C159.408,416.667 167.699,435.788 184.334,451.524C200.682,466.988 221.606,474.89 247.232,474.89ZM247.232,465.39C224.289,465.39 205.499,458.468 190.863,444.623C176.226,430.778 168.908,413.966 168.908,394.187C168.908,374.013 176.226,357.3 190.863,344.048C205.499,330.796 224.289,324.17 247.232,324.17C270.175,324.17 288.965,330.796 303.601,344.048C318.238,357.3 325.556,374.013 325.556,394.187C325.556,413.966 318.238,430.778 303.601,444.623C288.965,458.468 270.175,465.39 247.232,465.39ZM176.616,300.436L176.616,309.936L317.848,309.936L317.848,300.436C317.848,294.347 319.929,288.856 323.989,283.927C329.291,277.489 338.022,269 350.127,258.405C362.709,247.849 373.048,238.201 381.167,229.473C389.713,220.286 397.117,208.985 403.312,195.526C409.572,181.926 412.786,166.076 412.786,147.942C412.786,108.53 396.328,77.996 363.412,56.341C331.997,35.674 291.134,25.11 240.705,25.11C193.393,25.11 153.621,34.102 121.326,51.792C88.565,69.738 63.863,94.593 47.169,126.31L42.652,134.893L165.335,196.235L169.636,187.901C175.193,177.135 182.815,168.523 192.539,162.098C201.99,155.854 212.104,152.695 222.904,152.695C232.253,152.695 240.039,154.519 246.164,158.548C250.781,161.586 253.159,165.738 253.159,171.083C253.159,175.774 251.47,180.151 248.296,184.29C243.96,189.947 237.057,197.277 227.636,206.323C211.595,221.543 199.301,235.644 190.672,248.587C181.417,262.47 176.616,279.722 176.616,300.436ZM186.116,300.436C186.116,281.844 190.269,266.317 198.576,253.857C206.883,241.396 218.751,227.848 234.178,213.212C244.067,203.718 251.287,196.004 255.836,190.07C260.385,184.137 262.659,177.808 262.659,171.083C262.659,162.38 258.901,155.557 251.386,150.612C243.87,145.667 234.376,143.195 222.904,143.195C210.246,143.195 198.379,146.854 187.302,154.172C176.226,161.49 167.524,171.281 161.195,183.543L55.576,130.734C71.399,100.671 94.837,77.134 125.89,60.124C156.942,43.115 195.214,34.61 240.705,34.61C288.965,34.61 328.127,44.499 358.191,64.278C388.254,84.057 403.286,111.945 403.286,147.942C403.286,164.556 400.418,179.093 394.682,191.554C388.947,204.014 382.123,214.497 374.211,223.002C366.3,231.507 356.213,240.902 343.95,251.187C331.292,262.263 322.193,271.163 316.655,277.888C311.117,284.613 308.348,292.129 308.348,300.436L186.116,300.436Z"/>
    </clipPath>
    <g clip-path="url(#_clip1)">
        <g>
            <g transform="matrix(1,0,0,1.20068,7,-100.34)">
                <rect x="0" y="206" width="153" height="294" style="fill:rgb(255,142,0);"/>
            </g>
            <g transform="matrix(1,0,0,0.85034,340,74.8299)">
                <rect x="0" y="206" width="153" height="294" style="fill:rgb(246,99,36);"/>
            </g>
        </g>
        <g transform="matrix(1,0,0,1.52721,173.5,-263.605)">
            <rect x="0" y="206" width="153" height="294" style="fill:rgb(235,75,0);"/>
        </g>
        <g transform="matrix(1,0,0,1.67347,173.5,-336.735)">
            <rect x="0" y="206" width="153" height="294" style="fill:rgb(235,75,0);"/>
        </g>
        <g transform="matrix(2.13583,0,0,2.13583,-233.59,-335.072)">
            <g transform="matrix(277.813,0,0,277.813,139,372)">
                <path d="M0.207,-0.268C0.207,-0.299 0.214,-0.326 0.228,-0.347C0.242,-0.368 0.262,-0.39 0.288,-0.415C0.305,-0.431 0.317,-0.444 0.325,-0.454C0.332,-0.464 0.336,-0.475 0.336,-0.486C0.336,-0.501 0.33,-0.512 0.317,-0.521C0.304,-0.529 0.288,-0.533 0.269,-0.533C0.248,-0.533 0.228,-0.527 0.209,-0.515C0.19,-0.502 0.176,-0.486 0.165,-0.465L-0.013,-0.554C0.014,-0.605 0.053,-0.644 0.106,-0.673C0.158,-0.702 0.222,-0.716 0.299,-0.716C0.38,-0.716 0.446,-0.699 0.497,-0.666C0.548,-0.633 0.573,-0.586 0.573,-0.525C0.573,-0.497 0.568,-0.472 0.559,-0.452C0.549,-0.431 0.537,-0.413 0.524,-0.399C0.511,-0.384 0.494,-0.368 0.473,-0.351C0.452,-0.332 0.436,-0.317 0.427,-0.306C0.418,-0.295 0.413,-0.282 0.413,-0.268L0.207,-0.268ZM0.31,0.01C0.271,0.01 0.24,-0.002 0.215,-0.025C0.19,-0.048 0.178,-0.077 0.178,-0.11C0.178,-0.144 0.19,-0.172 0.215,-0.195C0.24,-0.217 0.271,-0.228 0.31,-0.228C0.349,-0.228 0.38,-0.217 0.405,-0.195C0.43,-0.172 0.442,-0.144 0.442,-0.11C0.442,-0.077 0.43,-0.048 0.405,-0.025C0.38,-0.002 0.349,0.01 0.31,0.01Z" style="fill:white;fill-rule:nonzero;"/>
            </g>
        </g>
        <g transform="matrix(0.581699,0,0,0.57483,173.5,-110.415)">
            <rect x="0" y="206" width="153" height="294" style="fill:rgb(235,75,0);"/>
        </g>
    </g>
</svg>
